<?xml version="1.0" encoding="utf-8"?>
<svg xmlns="http://www.w3.org/2000/svg" height="128" width="128" viewBox="0 0 128 128">
  <g>
    <path id="path1" transform="rotate(0,64,64) translate(28.9539995193481,28) scale(2.25,2.25)  " fill="#9A59D2" d="M25.484002,25.30899C27.331002,25.30899 28.829003,26.807007 28.829003,28.654999 28.829003,30.502991 27.331002,32 25.484002,32 23.635997,32 22.137996,30.502991 22.137996,28.654999 22.137996,26.807007 23.635997,25.30899 25.484002,25.30899z M25.954995,16.438995L31.152001,16.540985C30.939996,19.630005 29.641991,22.419006 27.639001,24.532013 26.995004,24.195007 26.260995,24.003998 25.484002,24.003998 23.031993,24.003998 21.023005,25.899994 20.844996,28.306 20.010005,28.476013 19.146006,28.56601 18.260997,28.56601 16.214002,28.56601 14.279004,28.088989 12.559995,27.242004L15.143001,22.721985C16.096997,23.143005 17.150996,23.377014 18.260997,23.377014 22.262996,23.377014 25.555993,20.335999 25.954995,16.438995z M3.3450009,12.566986C5.1930073,12.566986 6.691008,14.065002 6.691008,15.911987 6.691008,17.76001 5.1930073,19.257996 3.3450009,19.257996 1.4980009,19.257996 1.2004421E-07,17.76001 0,15.911987 1.2004421E-07,14.065002 1.4980009,12.566986 3.3450009,12.566986z M10.731001,5.1369934L13.490003,9.552002C11.686002,10.968994 10.525999,13.170013 10.525999,15.641998 10.525999,18.075989 11.650006,20.246002 13.408002,21.664001L10.844007,26.226013C8.602003,24.652008 6.8820022,22.384003 5.998,19.734009 7.2060074,18.893005 7.9960006,17.496002 7.9960006,15.911987 7.9960006,14.269989 7.1450027,12.825989 5.8580006,11.997986 6.6789993,9.2009888 8.4199961,6.7969971 10.731001,5.1369934z M18.260997,2.7180023C19.085994,2.7180023 19.893,2.7960052 20.674998,2.9440002 20.663997,3.076004 20.658,3.2100067 20.658,3.345993 20.658,5.9140015 22.740001,7.996994 25.308999,7.996994 26.309991,7.996994 27.236993,7.6809998 27.995995,7.1430054 29.764001,9.1659851 30.911004,11.744995 31.141,14.584015L25.943002,14.740997C25.497002,10.894012 22.227992,7.9069977 18.260997,7.9069977 17.126002,7.9069977 16.049008,8.151001 15.077999,8.5899963L12.508008,4.0670013C14.240994,3.2039948,16.193997,2.7180023,18.260997,2.7180023z M25.308999,0C27.156991,0 28.654,1.496994 28.654,3.345993 28.654,5.1929932 27.156991,6.6909943 25.308999,6.6909943 23.462001,6.6909943 21.964,5.1929932 21.964,3.345993 21.964,1.496994 23.462001,0 25.308999,0z" />
  </g>
</svg>

